HIERARCHY
ROOT hip
{
	OFFSET 0.000000 0.000000 0.000000
	CHANNELS 6 Xposition Yposition Zposition Zrotation Yrotation Xrotation 
	JOINT lhipjoint
	{
		OFFSET 0.000000 0.000000 0.000000
		CHANNELS 3 Zrotation Yrotation Xrotation
		JOINT lfemur
		{
			OFFSET 1.363060 -1.794630 0.839290
			CHANNELS 3 Zrotation Yrotation Xrotation
			JOINT ltibia
			{
				OFFSET 2.448110 -6.726130 0.000000
				CHANNELS 3 Zrotation Yrotation Xrotation
				JOINT lfoot
				{
					OFFSET 2.562200 -7.039590 0.000000
					CHANNELS 3 Zrotation Yrotation Xrotation
					JOINT ltoes
					{
						OFFSET 0.157640 -0.433110 2.322550
						CHANNELS 3 Zrotation Yrotation Xrotation
						End Site
						{
							OFFSET 0.000000 0.000000 0.000000
						}
					}
				}
			}
		}
	}
	JOINT rhipjoint
	{
		OFFSET 0.000000 0.000000 0.000000
		CHANNELS 3 Zrotation Yrotation Xrotation
		JOINT rfemur
		{
			OFFSET -1.305520 -1.794630 0.839290
			CHANNELS 3 Zrotation Yrotation Xrotation
			JOINT rtibia
			{
				OFFSET -2.542530 -6.985550 0.000000
				CHANNELS 3 Zrotation Yrotation Xrotation
				JOINT rfoot
				{
					OFFSET -2.568260 -7.056230 0.000000
					CHANNELS 3 Zrotation Yrotation Xrotation
					JOINT rtoes
					{
						OFFSET -0.164730 -0.452590 2.363150
						CHANNELS 3 Zrotation Yrotation Xrotation
						End Site
						{
							OFFSET 0.000000 0.000000 0.000000
						}
					}
				}
			}
		}
	}
	JOINT lowerback
	{
		OFFSET 0.000000 0.000000 0.000000
		CHANNELS 3 Zrotation Yrotation Xrotation
		JOINT upperback
		{
			OFFSET 0.028270 2.035590 -0.193380
			CHANNELS 3 Zrotation Yrotation Xrotation
			JOINT thorax
			{
				OFFSET 0.056720 2.048850 -0.042750
				CHANNELS 3 Zrotation Yrotation Xrotation
				JOINT lowerneck
				{
					OFFSET 0.000000 0.000000 0.000000
					CHANNELS 3 Zrotation Yrotation Xrotation
					JOINT upperneck
					{
						OFFSET -0.054170 1.746240 0.172020
						CHANNELS 3 Zrotation Yrotation Xrotation
						JOINT head
						{
							OFFSET 0.104070 1.761360 -0.123970
							CHANNELS 3 Zrotation Yrotation Xrotation
							End Site
							{
								OFFSET 0.000000 0.000000 0.000000
							}
						}
					}
				}
				JOINT lclavicle
				{
					OFFSET 0.000000 0.000000 0.000000
					CHANNELS 3 Zrotation Yrotation Xrotation
					JOINT lhumerus
					{
						OFFSET 3.362410 1.200890 -0.311210
						CHANNELS 3 Zrotation Yrotation Xrotation
						JOINT lradius
						{
							OFFSET 4.983000 -0.000000 -0.000000
							CHANNELS 3 Zrotation Yrotation Xrotation
							JOINT lwrist
							{
								OFFSET 3.483560 -0.000000 -0.000000
								CHANNELS 3 Zrotation Yrotation Xrotation
								JOINT lhand
								{
									OFFSET 0.000000 0.000000 0.000000
									CHANNELS 3 Zrotation Yrotation Xrotation
									JOINT lfingers
									{
										OFFSET 0.715260 -0.000000 -0.000000
										CHANNELS 3 Zrotation Yrotation Xrotation
										End Site
										{
											OFFSET 0.000000 0.000000 0.000000
										}
									}
								}
								JOINT lthumb
								{
									OFFSET 0.000000 0.000000 0.000000
									CHANNELS 3 Zrotation Yrotation Xrotation
									End Site
									{
										OFFSET 0.000000 0.000000 0.000000
									}
								}
							}
						}
					}
				}
				JOINT rclavicle
				{
					OFFSET 0.000000 0.000000 0.000000
					CHANNELS 3 Zrotation Yrotation Xrotation
					JOINT rhumerus
					{
						OFFSET -3.136600 1.374050 -0.404650
						CHANNELS 3 Zrotation Yrotation Xrotation
						JOINT rradius
						{
							OFFSET -5.241900 -0.000000 -0.000000
							CHANNELS 3 Zrotation Yrotation Xrotation
							JOINT rwrist
							{
								OFFSET -3.444170 -0.000000 -0.000000
								CHANNELS 3 Zrotation Yrotation Xrotation
								JOINT rhand
								{
									OFFSET 0.000000 0.000000 0.000000
									CHANNELS 3 Zrotation Yrotation Xrotation
									JOINT rfingers
									{
										OFFSET -0.622530 -0.000000 -0.000000
										CHANNELS 3 Zrotation Yrotation Xrotation
										End Site
										{
											OFFSET 0.000000 0.000000 0.000000
										}
									}
								}
								JOINT rthumb
								{
									OFFSET 0.000000 0.000000 0.000000
									CHANNELS 3 Zrotation Yrotation Xrotation
									End Site
									{
										OFFSET 0.000000 0.000000 0.000000
									}
								}
							}
						}
					}
				}
			}
		}
	}
}
MOTION
Frames: 7
Frame Time: 0.008333
34.416918 19.533583 -0.212675 -12.826588 83.840692 -14.106959 -2.742044 1.886091 0.583919 -13.891238 -0.337933 -17.290675 3.307950 10.539648 33.124843 0.619103 -2.229090 -0.539805 0.566800 -4.821600 -13.400400 -0.326314 -3.110320 0.449918 11.441594 0.922541 -18.023910 -9.940835 -16.739757 60.993578 -2.152846 11.721001 20.025596 -0.376100 3.938900 -10.904800 -0.217557 2.961253 4.691242 0.057456 3.939594 -1.592422 -2.866209 3.608943 12.604758 4.991922 1.298340 -5.711525 -7.290901 2.220585 20.844651 -2.160000 0.800300 7.878900 3.814997 3.838543 1.161882 -85.524891 -14.698393 34.282512 4.746890 -26.041036 -1.238383 -0.826269 0.296203 47.692700 12.541956 -7.099773 -1.570500 -7.125000 0.000000 0.000000 -9.865500 23.170500 5.263800 -3.113870 -2.381485 3.033404 88.820138 -0.020020 12.711580 -12.962526 32.862652 -2.581895 0.022407 -2.976443 8.810034 -9.319096 7.279715 -1.762500 7.125000 0.000000 0.000000 12.177000 -19.702300 7.529300 
34.509367 19.538195 -0.222719 -13.055933 83.792928 -14.294568 -2.748432 1.882587 0.599818 -13.909156 -0.134275 -17.028960 3.288691 10.507448 33.021529 0.649872 -2.379701 -0.791374 0.573500 -4.849800 -13.480700 -0.339430 -3.081203 0.407581 11.637753 0.815415 -19.094002 -9.836476 -16.733521 60.751664 -2.182918 12.648346 19.897739 -0.362800 3.869200 -10.709000 -0.023247 2.942519 4.854206 0.077673 3.912428 -1.570134 -2.986557 3.618953 12.602524 5.151279 1.407383 -5.611094 -7.323485 2.390353 21.158196 -2.220000 0.893600 8.011400 3.772104 3.820327 1.162079 -85.188221 -15.021086 35.949477 5.652927 -27.260909 -1.433214 -0.809260 0.339800 46.968246 12.449608 -7.046084 -1.562100 -7.125000 0.000000 0.000000 -9.914600 23.173300 5.290100 -3.153753 -2.385296 3.023549 89.071878 -0.013975 11.548396 -12.389842 32.332862 -2.499248 -0.013393 -2.944701 9.390984 -9.537436 7.225856 -1.786100 7.125000 0.000000 0.000000 12.035600 -19.775900 7.417500 
34.601304 19.544755 -0.233071 -13.324964 83.764099 -14.509285 -2.754686 1.879504 0.614829 -13.927607 0.085820 -16.774883 3.263423 10.467461 32.890167 0.683651 -2.550744 -0.994591 0.566300 -4.819600 -13.394600 -0.353816 -3.052237 0.364785 11.855782 0.685801 -20.140430 -9.678242 -16.697533 60.332754 -2.210202 13.595700 19.843932 -0.311400 3.587300 -9.918300 0.169712 2.907658 5.012586 0.105125 3.866442 -1.545650 -3.056908 3.615122 12.619676 5.255122 1.513487 -5.534903 -7.364393 2.563524 21.461916 -2.271200 0.982500 8.146000 3.735844 3.810450 1.162758 -84.954768 -15.397036 37.324330 6.528977 -28.426409 -1.635515 -0.795254 0.383696 46.359721 12.337151 -7.058310 -1.565900 -7.125000 0.000000 0.000000 -9.974500 23.113300 5.337000 -3.187072 -2.397773 3.011111 89.266194 0.028329 10.418405 -11.849619 31.807094 -2.421716 -0.041230 -2.913790 9.888463 -9.700466 7.101941 -1.787400 7.125000 0.000000 0.000000 11.934400 -19.920900 7.312700 
34.691807 19.552134 -0.241270 -13.429621 83.757700 -14.519266 -2.764973 1.873911 0.628550 -13.962576 0.272631 -16.545367 3.233500 10.417384 32.730080 0.711333 -2.686362 -1.202322 0.576700 -4.863200 -13.518700 -0.372123 -3.025682 0.324781 12.088761 0.548139 -21.188245 -9.470754 -16.633046 59.744458 -2.232565 14.467049 19.875498 -0.253900 3.242000 -8.953200 0.333331 2.868985 5.134124 0.130592 3.815775 -1.525963 -3.123906 3.604642 12.624124 5.350367 1.610994 -5.409159 -7.415387 2.735995 21.725110 -2.320200 1.071100 8.246900 3.700966 3.803876 1.163164 -84.730186 -15.816527 38.508874 7.366282 -29.508382 -1.841435 -0.780400 0.424422 45.692810 12.184358 -7.062091 -1.562100 -7.125000 0.000000 0.000000 -10.066800 23.063300 5.399600 -3.228706 -2.408168 2.999044 89.466812 0.073723 9.223890 -11.285298 31.252034 -2.341814 -0.076026 -2.872667 10.480422 -9.881419 7.047953 -1.801200 7.125000 0.000000 0.000000 11.820400 -20.005300 7.216800 
34.781796 19.560641 -0.248650 -13.723077 83.748243 -14.701586 -2.771710 1.870588 0.641099 -13.976663 0.456382 -16.322685 3.198139 10.361776 32.545184 0.739494 -2.825216 -1.387972 0.574700 -4.854800 -13.494800 -0.387473 -2.997426 0.284170 12.361158 0.408149 -22.185027 -9.213407 -16.533115 58.978314 -2.248773 15.228461 19.956212 -0.201800 2.892800 -7.980400 0.487349 2.798955 5.234071 0.170784 3.727061 -1.503661 -3.092680 3.564011 12.650213 5.339499 1.725460 -5.271592 -7.476051 2.950894 21.971351 -2.347000 1.168800 8.337600 3.666295 3.803744 1.164449 -84.580764 -16.232833 39.573872 8.219010 -30.588198 -2.068397 -0.759763 0.468251 44.822522 11.936141 -6.915925 -1.514500 -7.125000 0.000000 0.000000 -10.238400 23.156200 5.472300 -3.254919 -2.425332 2.986684 89.560685 0.127432 8.161838 -10.781490 30.722278 -2.269643 -0.108411 -2.824351 11.034268 -10.043283 7.023025 -1.814800 7.125000 0.000000 0.000000 11.719800 -20.068500 7.135700 
34.870658 19.568431 -0.255107 -14.075591 83.757565 -14.935576 -2.778234 1.869141 0.655340 -13.979137 0.622069 -16.096531 3.159766 10.302237 32.346366 0.770289 -2.983685 -1.538895 0.563600 -4.808300 -13.362500 -0.402317 -2.971267 0.247274 12.657270 0.247441 -23.122605 -8.911052 -16.398892 58.051128 -2.259295 15.964346 20.035412 -0.159300 2.571400 -7.087600 0.672982 2.735455 5.343791 0.201988 3.643831 -1.485151 -3.139845 3.536942 12.653792 5.411170 1.818362 -5.135919 -7.554940 3.129523 22.196674 -2.399300 1.256700 8.417600 3.627842 3.802135 1.163220 -84.346831 -16.686709 40.676671 9.064101 -31.600846 -2.301472 -0.734832 0.504254 43.531187 11.700711 -6.705215 -1.454900 -7.125000 0.000000 0.000000 -10.411000 23.309000 5.530500 -3.284352 -2.431527 2.978205 89.685742 0.158282 7.213431 -10.297577 30.224368 -2.202594 -0.138719 -2.784422 11.465105 -10.189556 6.959404 -1.819300 7.125000 0.000000 0.000000 11.633600 -20.161800 7.056100 
34.958905 19.576733 -0.259822 -14.087960 83.797242 -14.826812 -2.790346 1.863634 0.666758 -14.023963 0.805771 -15.874530 3.118798 10.234999 32.129215 0.804833 -3.166310 -1.684069 0.570500 -4.837200 -13.444800 -0.422669 -2.951869 0.214185 12.920169 0.086412 -23.985682 -8.571335 -16.233209 56.966753 -2.258754 16.559295 19.932599 -0.132200 2.344000 -6.457200 0.777676 2.658743 5.448941 0.242168 3.547624 -1.468004 -3.070551 3.484755 12.654620 5.350316 1.922290 -4.991163 -7.604420 3.334398 22.410026 -2.408600 1.345300 8.493700 3.593185 3.796721 1.162389 -84.222023 -17.118058 41.564568 9.874140 -32.565847 -2.537858 -0.711334 0.540611 42.156524 11.465833 -6.512485 -1.400600 -7.125000 0.000000 0.000000 -10.583400 23.442300 5.592100 -3.304607 -2.444867 2.965534 89.712150 0.177582 6.308949 -9.862836 29.732959 -2.137116 -0.162071 -2.736252 11.930379 -10.263164 6.904681 -1.811700 7.125000 0.000000 0.000000 11.594600 -20.259100 7.005600 
